<?xml version="1.0" encoding="UTF-8"?> <svg xmlns="http://www.w3.org/2000/svg" width="86" height="51" viewBox="0 0 86 51" fill="none"> <path d="M0 0.0292969H2.5464V47.3864H7.25869V0.0292969H9.80508V47.3864H14.5466V0.0292969H17.093V49.8157H0V0.0292969Z" fill="white"></path> <path d="M30.0592 49.8157L28.6543 36.0886H23.2981L21.9225 49.8157H19.4639L24.1762 0.0292969H27.5128L32.7227 49.8157H30.0592ZM25.6103 9.21973L23.6493 33.6885H28.2738L26.1957 9.21973C26.1664 8.83924 25.6396 8.83924 25.6103 9.21973Z" fill="white"></path> <path d="M43.1133 6.05869C43.1133 5.12209 42.762 2.78057 40.3327 2.78057C37.6692 2.78057 37.4351 5.32697 37.4351 6.73188V44.079C37.4351 45.0156 37.8156 47.4742 40.1864 47.4742C41.5035 47.4742 43.1425 46.8303 43.1425 43.8156V42.9961H45.7182V43.9619C45.7182 47.7083 44.1669 50.1962 40.0986 50.1962C35.357 50.1962 34.918 45.9229 34.918 44.4302V5.70747C34.918 2.75131 36.7912 0.0292969 40.2449 0.0292969C43.2011 0.0292969 45.6304 1.60982 45.6304 5.73673V7.43433H43.1718L43.1133 6.05869Z" fill="white"></path> <path d="M57.9814 0.0292969V2.60496H53.591V49.8157H51.0446V2.60496H46.6543V0.0292969H57.9814Z" fill="white"></path> <path d="M76.8012 0L76.772 33.6885H82.4794L82.5087 0H85.0551L85.0258 49.8157H82.4794V36.1178H76.772V49.8157H74.2256L74.2549 0H76.8012Z" fill="white"></path> <path d="M69.3085 0.0292969C69.3085 0.0292969 68.167 5.91235 66.7328 12.9369C66.7036 13.1125 66.4694 13.1125 66.4109 12.9369L62.5474 0.0585658L60.0888 0.0878347L65.6206 17.5321C65.1231 19.7273 64.4791 22.7712 63.9816 25.1713C63.9816 25.1713 60.1473 45.3376 59.1229 46.5669C58.6254 47.1522 58.1863 47.3571 57.4546 47.3571H56.957V49.845C56.957 49.845 57.3375 49.845 57.6595 49.845C58.5376 49.8157 59.5327 49.6986 60.323 49.1133C61.6693 48.1181 62.1962 45.6303 62.723 43.2887L66.7036 25.1713C69.1622 13.0247 71.7378 0.0292969 71.7378 0.0292969H69.3085Z" fill="white"></path> </svg> 