<?xml version="1.0" encoding="UTF-8"?> <svg xmlns="http://www.w3.org/2000/svg" width="695" height="201" viewBox="0 0 695 201" fill="none"> <g clip-path="url(#clip0_282_8285)"> <path d="M60.5 64.4008C60.4 64.4008 60.4 64.4008 60.3 64.4008C60.1 64.3008 60 64.1008 60 63.9008V47.5008H1C0.7 47.5008 0.5 47.3008 0.5 47.0008V38.6008C0.5 38.3008 0.7 38.1008 1 38.1008H60V21.8008C60 21.6008 60.1 21.4008 60.3 21.3008C60.4 21.3008 60.4 21.3008 60.5 21.3008C60.6 21.3008 60.7 21.3008 60.8 21.4008L83 42.5008C83.1 42.6008 83.2 42.7008 83.2 42.9008C83.2 43.1008 83.1 43.2008 83 43.3008L60.9 64.2008C60.8 64.3008 60.7 64.4008 60.5 64.4008Z" fill="white"></path> <path d="M60.5 21.8008L82.6 42.9008L60.5 63.9008V47.0008H1V38.6008H60.5V21.8008ZM60.5 20.8008C60.4 20.8008 60.2 20.8008 60.1 20.9008C59.7 21.1008 59.5 21.4008 59.5 21.8008V37.6008H1C0.4 37.6008 0 38.0008 0 38.6008V47.0008C0 47.6008 0.4 48.0008 1 48.0008H59.5V63.8008C59.5 64.2008 59.7 64.6008 60.1 64.7008C60.2 64.8008 60.4 64.8008 60.5 64.8008C60.8 64.8008 61 64.7008 61.2 64.5008L83.3 43.4008C83.5 43.2008 83.6 42.9008 83.6 42.7008C83.6 42.5008 83.5 42.2008 83.3 42.0008L61.2 21.1008C61 20.9008 60.8 20.8008 60.5 20.8008Z" fill="white"></path> <path d="M37.5997 191.803C37.2997 191.803 37.0997 191.603 37.0997 191.303V132.303H20.7997C20.5997 132.303 20.3997 132.203 20.2997 132.003C20.1997 131.803 20.2997 131.603 20.3997 131.503L41.4997 109.403C41.5997 109.303 41.6997 109.203 41.8997 109.203C42.0997 109.203 42.1997 109.303 42.2997 109.403L63.3997 131.503C63.4997 131.603 63.5997 131.903 63.4997 132.003C63.3997 132.203 63.1997 132.303 62.9997 132.303H46.4997V191.303C46.4997 191.603 46.2997 191.803 45.9997 191.803H37.5997Z" fill="white"></path> <path d="M41.7999 109.602L62.9 131.702H46V191.202H37.5999V131.702H20.7999L41.7999 109.602ZM41.7999 108.602C41.4999 108.602 41.2999 108.702 41.0999 108.902L20.1 131.002C19.8 131.302 19.7 131.702 19.9 132.102C20.1 132.502 20.3999 132.702 20.7999 132.702H36.5999V191.202C36.5999 191.802 36.9999 192.202 37.5999 192.202H46C46.6 192.202 47 191.802 47 191.202V132.702H62.7999C63.1999 132.702 63.6 132.502 63.7 132.102C63.9 131.702 63.8 131.302 63.5 131.002L42.4 108.902C42.4 108.702 42.0999 108.602 41.7999 108.602Z" fill="white"></path> <path d="M163.4 77.7992H148.2V56.0992H133.5C117.7 56.0992 113.4 52.2992 113.4 39.7992V21.1992H128.6V38.0992C128.6 45.1992 130.8 45.1992 137.3 45.1992H148.2V21.1992H163.4V77.7992Z" fill="white"></path> <path d="M198.8 19.6C217.4 19.6 226 33 226 49.5C226 50.8 225.9 52.8 225.9 52.8H185.8C186.5 61.5 190.2 68 199.3 68C208.6 68 210.2 59.3 210.2 59.3H225.4C225.4 59.3 222.1 79.4 198.7 79.4C179.7 79.4 170.4 66 170.4 49.5C170.5 33 180.2 19.6 198.8 19.6ZM185.2 0C190 0 193.9 3.9 193.9 8.7C193.9 13.5 190 17.4 185.2 17.4C180.4 17.4 176.5 13.5 176.5 8.7C176.5 3.9 180.4 0 185.2 0ZM186.3 43H210.4C209.4 36 206.4 31 198.9 31C191.3 31 187.6 36 186.3 43ZM211.3 0C216.1 0 220 3.9 220 8.7C220 13.5 216.1 17.4 211.3 17.4C206.5 17.4 202.6 13.5 202.6 8.7C202.6 3.9 206.5 0 211.3 0Z" fill="white"></path> <path d="M318 71.3008C318 87.6008 309.3 99.1008 289.7 99.1008C263.6 99.0008 263 79.5008 263 79.5008H278.2C278.2 79.5008 278.7 87.7008 289.6 87.7008C299.3 87.7008 302.7 82.3008 302.7 72.5008V69.8008H302.2C302.2 69.8008 297.3 77.4008 285.3 77.4008C269 77.4008 260.8 63.3008 260.8 48.6008C260.8 33.9008 269 19.8008 285.3 19.8008C297.8 19.8008 302.7 29.1008 302.7 29.1008H303.2V21.5008H318V71.3008ZM289.7 31.0008C280.4 31.0008 276.1 39.3008 276.1 48.4008C276.1 57.5008 280.5 65.8008 289.7 65.8008C298.9 65.8008 303.3 57.5008 303.3 48.4008C303.3 39.3008 298.9 31.0008 289.7 31.0008Z" fill="white"></path> <path d="M353.3 19.6016C371.9 19.6016 380.5 33.0016 380.5 49.5016C380.5 50.8016 380.4 52.8016 380.4 52.8016H340.3C341 61.5016 344.7 68.0016 353.8 68.0016C363.1 68.0016 364.7 59.3016 364.7 59.3016H380C380 59.3016 376.7 79.4016 353.3 79.4016C334.3 79.4016 325 66.0016 325 49.5016C325 33.0016 334.7 19.6016 353.3 19.6016ZM340.8 43.0016H364.9C363.9 36.0016 360.9 31.0016 353.4 31.0016C345.8 31.0016 342.1 36.0016 340.8 43.0016Z" fill="white"></path> <path d="M402.5 21.1992H419.7L440.1 77.7992H423.8L410.7 37.5992L397.6 77.7992H382.1L402.5 21.1992Z" fill="white"></path> <path d="M445.5 38.6016C446.4 24.1016 458 19.6016 471.1 19.6016C484.7 19.6016 495.6 24.5016 495.6 39.2016V77.8016H480.4V66.9016H479.9C479.9 66.9016 476.4 79.4016 461.9 79.4016C451.6 79.4016 443.9 74.6016 443.9 64.2016C443.9 53.6016 452.6 48.9016 462 46.5016C471.5 44.1016 480.4 43.3016 480.4 37.0016C480.4 32.5016 477.1 29.9016 471.1 29.9016C464.6 29.9016 461 32.5016 460.8 38.6016H445.5ZM468.4 53.9016C463.5 55.1016 459.4 57.6016 459.4 62.6016C459.4 67.0016 462.4 69.7016 467.3 69.7016C477.6 69.7016 480.4 57.7016 480.4 49.3016C477.9 51.6016 472.7 52.8016 468.4 53.9016Z" fill="white"></path> <path d="M531 19.6016C549.6 19.6016 558.2 33.0016 558.2 49.5016C558.2 50.8016 558.1 52.8016 558.1 52.8016H518C518.7 61.5016 522.4 68.0016 531.5 68.0016C540.8 68.0016 542.4 59.3016 542.4 59.3016H557.6C557.6 59.3016 554.3 79.4016 530.9 79.4016C511.9 79.4016 502.6 66.0016 502.6 49.5016C502.7 33.0016 512.4 19.6016 531 19.6016ZM518.5 43.0016H542.6C541.6 36.0016 538.6 31.0016 531.1 31.0016C523.6 31.0016 519.8 36.0016 518.5 43.0016Z" fill="white"></path> <path d="M633.8 77.7992H619.7V38.0992H619.2L606.7 77.7992H592.6L580.1 38.0992H579.6V77.7992H565.5V21.1992H588.4L599.8 60.3992L611 21.1992H633.9V77.7992H633.8Z" fill="white"></path> <path d="M638 27.2C638 10.3 648.4 0 665.8 0C681 0 693 8.7 693 22.9C693 43 671.2 41.9 671.2 56.1H656V55C656 35.4 676.7 36 676.7 24C676.7 18 672.9 13.7 665.3 13.7C658.8 13.7 653.3 17.5 653.3 27.3H638V27.2ZM663.6 61.5C668.4 61.5 672.3 65.4 672.3 70.2C672.3 75 668.4 78.9 663.6 78.9C658.8 78.9 654.9 75 654.9 70.2C654.9 65.4 658.8 61.5 663.6 61.5Z" fill="white"></path> <path d="M113.4 123.199H128.6V146.099L148.7 123.199H166.7L145.4 145.299L167.8 179.799H149.2L134.8 156.199L128.6 162.599V179.799H113.4V123.199Z" fill="white"></path> <path d="M207 181.501C202.5 194.501 196.7 201.101 185.2 201.101C179.8 201.101 175.4 199.501 175.4 199.501V187.001C175.4 187.001 178.7 188.101 182.5 188.101C187.9 188.101 190.1 185.201 192.3 179.901L169.4 123.301H185.7L199.5 160.601L210.7 123.301H227L207 181.501Z" fill="white"></path> <path d="M285.9 173.301C285.9 189.601 277.2 201.101 257.6 201.101C231.5 201.101 230.9 181.501 230.9 181.501H246.1C246.1 181.501 246.6 189.701 257.5 189.701C267.2 189.701 270.6 184.301 270.6 174.501V171.801H270.1C270.1 171.801 265.2 179.401 253.2 179.401C236.9 179.401 228.7 165.301 228.7 150.601C228.7 135.901 236.9 121.801 253.2 121.801C265.7 121.801 270.6 131.101 270.6 131.101H271.1V123.501H285.8V173.301H285.9ZM257.6 133.001C248.3 133.001 244 141.301 244 150.401C244 159.501 248.4 167.801 257.6 167.801C266.9 167.801 271.2 159.501 271.2 150.401C271.2 141.301 266.8 133.001 257.6 133.001Z" fill="white"></path> <path d="M294 140.602C294.9 126.102 306.5 121.602 319.6 121.602C333.2 121.602 344.1 126.502 344.1 141.202V179.802H328.9V168.902H328.4C328.4 168.902 324.9 181.402 310.4 181.402C300.1 181.402 292.4 176.602 292.4 166.202C292.4 155.602 301.1 150.902 310.5 148.502C320 146.102 328.9 145.302 328.9 139.002C328.9 134.502 325.6 131.902 319.6 131.902C313.1 131.902 309.5 134.502 309.3 140.602H294ZM316.9 155.902C312 157.102 307.9 159.602 307.9 164.602C307.9 169.002 310.9 171.702 315.8 171.702C326.1 171.702 328.9 159.702 328.9 151.302C326.4 153.602 321.2 154.802 316.9 155.902Z" fill="white"></path> <path d="M432.8 179.799H418.1V170.499H417.6C417.6 170.499 412.7 181.399 400.2 181.399C384.4 181.399 380.1 171.099 380.1 157.999V123.199H395.3V154.799C395.3 164.599 398 168.899 405.1 168.899C413.3 168.899 417.6 163.999 417.6 152.599V123.199H432.8V179.799Z" fill="white"></path> <path d="M497 173.301C497 189.601 488.3 201.101 468.7 201.101C442.6 201.101 442 181.501 442 181.501H457.2C457.2 181.501 457.7 189.701 468.6 189.701C478.3 189.701 481.7 184.301 481.7 174.501V171.801H481.2C481.2 171.801 476.3 179.401 464.3 179.401C448 179.401 439.8 165.301 439.8 150.601C439.8 135.901 448 121.801 464.3 121.801C476.8 121.801 481.7 131.101 481.7 131.101H482.2V123.501H497V173.301ZM468.7 133.001C459.4 133.001 455.1 141.301 455.1 150.401C455.1 159.501 459.5 167.801 468.7 167.801C478 167.801 482.3 159.501 482.3 150.401C482.3 141.301 478 133.001 468.7 133.001Z" fill="white"></path> <path d="M532.4 121.6C551 121.6 559.6 135 559.6 151.5C559.6 152.8 559.5 154.8 559.5 154.8H519.4C520.1 163.5 523.8 170 532.9 170C542.2 170 543.8 161.3 543.8 161.3H559C559 161.3 555.7 181.4 532.3 181.4C513.3 181.4 504 168 504 151.5C504 135 513.8 121.6 532.4 121.6ZM518.8 102C523.6 102 527.5 105.9 527.5 110.7C527.5 115.5 523.6 119.4 518.8 119.4C514 119.4 510.1 115.5 510.1 110.7C510.1 105.9 514 102 518.8 102ZM519.9 145H544C543 138 540 133 532.5 133C525 133 521.2 138 519.9 145ZM544.9 102C549.7 102 553.6 105.9 553.6 110.7C553.6 115.5 549.7 119.4 544.9 119.4C540.1 119.4 536.2 115.5 536.2 110.7C536.2 105.9 540.1 102 544.9 102Z" fill="white"></path> <path d="M635.2 179.799H621.1V140.099H620.6L608 179.799H593.9L581.4 140.099H580.9V179.799H566.8V123.199H589.7L601.1 162.399L612.5 123.199H635.4V179.799H635.2Z" fill="white"></path> <path d="M639.4 129.2C639.4 112.3 649.7 102 667.2 102C682.4 102 694.4 110.7 694.4 124.9C694.4 145 672.6 143.9 672.6 158.1H657.4V157C657.4 137.4 678.1 138 678.1 126C678.1 120 674.3 115.7 666.7 115.7C660.2 115.7 654.7 119.5 654.7 129.3H639.4V129.2ZM665 163.5C669.8 163.5 673.7 167.4 673.7 172.2C673.7 177 669.8 180.9 665 180.9C660.2 180.9 656.3 177 656.3 172.2C656.3 167.4 660.2 163.5 665 163.5Z" fill="white"></path> </g> <defs> <clipPath id="clip0_282_8285"> <rect width="694.4" height="201" fill="white"></rect> </clipPath> </defs> </svg> 