<?xml version="1.0" encoding="UTF-8"?> <svg xmlns="http://www.w3.org/2000/svg" width="259" height="46" viewBox="0 0 259 46" fill="none"> <path fill-rule="evenodd" clip-rule="evenodd" d="M251.9 31.4998V14.1998H258.5V31.4998H251.9ZM248.8 29.6998C248.1 30.1998 247.3 30.6998 246.1 30.9998C245 31.2998 243.5 31.4998 241.8 31.4998H227.9V14.1998H234.5V19.2998H241.8C243.5 19.2998 245 19.4998 246.1 19.7998C247.2 20.0998 248.1 20.4998 248.8 21.0998C249.5 21.5998 249.9 22.2998 250.2 22.9998C250.5 23.6998 250.6 24.4998 250.6 25.2998V25.6998C250.6 26.4998 250.5 27.2998 250.2 27.9998C249.9 28.6998 249.5 29.1998 248.8 29.6998ZM243.7 25.2998C243.7 25.0998 243.7 24.7998 243.6 24.5998C243.5 24.3998 243.4 24.1998 243.2 24.0998C243 23.8998 242.7 23.7998 242.4 23.6998C242 23.5998 241.6 23.5998 241.1 23.5998H234.5V27.1998H240.9C241.4 27.1998 241.9 27.0998 242.2 26.9998C242.6 26.8998 242.8 26.7998 243 26.5998C243.2 26.3998 243.4 26.1998 243.4 25.9998C243.7 25.8998 243.7 25.5998 243.7 25.2998ZM218.9 31.4998H212.3V18.8998H204.8V14.1998H226.3V18.8998H218.8V31.4998H218.9ZM196.2 31.4998L187.8 23.7998V31.4998H181.2V14.1998H187.8V20.9998L196.3 14.1998H204.5L194.4 21.9998L204.8 31.3998H196.2V31.4998ZM172 28.6998H162.1L160.8 31.4998H154.1L162.7 14.1998H171.6L180.7 31.4998H173.5L172 28.6998ZM167 18.3998L164.2 24.3998H169.9L167 18.3998ZM146.5 31.4998H139.9V18.8998H132.4V14.1998H153.9V18.8998H146.5V31.4998ZM124.2 24.8998H113.4V31.4998H106.8V14.1998H113.4V20.2998H124.2V14.1998H130.8V31.4998H124.2V24.8998ZM104.6 26.7998C104.3 27.3998 103.8 28.0998 103.3 28.6998C102.7 29.2998 102 29.7998 101 30.2998C100.1 30.7998 98.9004 31.0998 97.6004 31.3998C96.3004 31.6998 94.6004 31.7998 92.8004 31.7998H91.8004C89.9004 31.7998 88.3004 31.6998 87.0004 31.3998C85.6004 31.0998 84.5004 30.6998 83.6004 30.2998C82.7004 29.7998 81.9004 29.2998 81.3004 28.6998C80.7004 28.0998 80.3004 27.4998 80.0004 26.7998C79.7004 26.1998 79.5004 25.4998 79.4004 24.8998C79.3004 24.2998 79.2004 23.6998 79.2004 23.0998V22.3998C79.2004 21.8998 79.3004 21.2998 79.4004 20.5998C79.5004 19.9998 79.7004 19.2998 80.0004 18.6998C80.3004 18.0998 80.8004 17.4998 81.3004 16.8998C81.9004 16.2998 82.6004 15.7998 83.6004 15.2998C84.5004 14.7998 85.7004 14.4998 87.0004 14.1998C88.3004 13.8998 90.0004 13.7998 91.8004 13.7998H92.8004C94.7004 13.7998 96.3004 13.8998 97.6004 14.1998C98.9004 14.4998 100.1 14.7998 101 15.2998C101.9 15.7998 102.7 16.2998 103.3 16.8998C103.9 17.4998 104.3 18.0998 104.6 18.6998C104.9 19.2998 105.1 19.9998 105.2 20.5998C105.3 21.1998 105.4 21.7998 105.4 22.3998V23.0998C105.4 23.5998 105.3 24.1998 105.2 24.8998C105.1 25.4998 104.9 26.1998 104.6 26.7998ZM98.5004 22.5998C98.5004 22.0998 98.4004 21.6998 98.2004 21.1998C98.0004 20.6998 97.7004 20.2998 97.2004 19.8998C96.7004 19.4998 96.1004 19.1998 95.3004 18.8998C94.5004 18.5998 93.4004 18.4998 92.1004 18.4998C90.8004 18.4998 89.7004 18.5998 88.9004 18.8998C88.1004 19.1998 87.4004 19.4998 87.0004 19.8998C86.5004 20.2998 86.2004 20.6998 86.1004 21.1998C85.9004 21.6998 85.8004 22.1998 85.8004 22.5998V22.8998C85.8004 23.3998 85.9004 23.7998 86.1004 24.2998C86.3004 24.7998 86.6004 25.2998 87.1004 25.6998C87.6004 26.0998 88.2004 26.4998 89.0004 26.6998C89.8004 26.9998 90.9004 27.0998 92.2004 27.0998C93.5004 27.0998 94.5004 26.9998 95.3004 26.6998C96.1004 26.3998 96.8004 26.0998 97.2004 25.6998C97.7004 25.2998 98.0004 24.7998 98.2004 24.2998C98.4004 23.7998 98.5004 23.2998 98.5004 22.7998V22.5998ZM70.4004 31.4998L62.0004 23.7998V31.4998H55.4004V14.1998H62.0004V20.9998L70.5004 14.1998H78.7004L68.6004 21.9998L79.0004 31.3998H70.4004V31.4998Z" fill="white"></path> <path fill-rule="evenodd" clip-rule="evenodd" d="M23.1 0C10.6 0 0.5 10.1 0.5 22.6C0.5 35.1 10.6 45.2 23.1 45.2C35.6 45.2 45.7 35.1 45.7 22.6C45.7 10.1 35.6 0 23.1 0ZM23.1 42.5C12.1 42.5 3.2 33.6 3.2 22.6C3.2 11.6 12.2 2.8 23.1 2.8C34.1 2.8 43 11.7 43 22.7C43 33.7 34.1 42.5 23.1 42.5Z" fill="white"></path> <path d="M28 16.8998C28.3 16.5998 28.4 16.1998 28.4 15.7998C28.4 15.3998 28.2 14.9998 27.9 14.7998C27.6 14.4998 27.1 14.2998 26.8 14.2998C26.4 14.2998 25.9 14.4998 25.6 14.8998L20.6 20.8998V15.6998C20.6 14.6998 20 14.2998 19.1 14.2998C18.7 14.2998 18.3 14.4998 18 14.6998C17.7 14.8998 17.5 15.2998 17.5 15.6998V29.4998C17.5 30.3998 18.1 30.7998 19 30.7998C20.1 30.7998 20.5 30.2998 20.5 29.4998V25.5998L21.3 24.6998L26.1 30.1998C26.4 30.4998 26.8 30.7998 27.3 30.6998C27.7 30.6998 28.1 30.4998 28.4 30.1998C28.7 29.8998 28.8 29.4998 28.8 29.0998C28.8 28.5998 28.6 28.1998 28.3 27.9998L23.2 22.1998L28 16.8998Z" fill="white"></path> </svg> 