<?xml version="1.0" encoding="UTF-8"?> <svg xmlns="http://www.w3.org/2000/svg" width="148" height="41" viewBox="0 0 148 41" fill="none"> <path d="M26.301 22.4694L23.6206 22.6244L22.956 10.8172L21.9148 10.8615L11.9905 23.2669L6.93976 23.5548L6.12012 9.22219L8.77841 9.06712L9.44299 20.8744L10.3955 20.8301L20.8294 8.40255L25.5035 8.13672L26.301 22.4694Z" fill="white"></path> <path d="M45.1977 21.4059L43.5584 9.64298L43.1375 9.66513L40.2798 21.6718L36.3145 21.8933L32.1277 10.2854L31.7068 10.3076L31.4188 22.1813L28.6055 22.3363L29.0485 7.93724L34.1657 7.64926L38.1089 19.2793H38.2639L40.8115 7.29482L45.9508 7.00684L47.9889 21.273L45.1977 21.4059Z" fill="white"></path> <path d="M62.6755 20.4091L60.0393 20.5642L59.3748 8.73478L52.7955 9.11137L53.4601 20.9408L50.7796 21.0959L49.96 6.76321L61.8558 6.09863L62.6755 20.4091Z" fill="white"></path> <path d="M77.208 10.2188C77.3631 13.0764 75.3251 15.336 72.4452 15.5132L68.6129 15.7347L68.8565 20.0766L66.1761 20.2317L65.3564 5.89904L71.8693 5.52244C74.7491 5.34522 77.0529 7.38325 77.208 10.2188ZM71.7364 13.1207C73.6415 13.01 74.4611 11.7251 74.3946 10.3738C74.3282 9.04469 73.3535 7.84845 71.4484 7.95922L68.192 8.13644L68.4799 13.298L71.7364 13.1207Z" fill="white"></path> <path d="M81.9711 12.1238C81.8161 9.24399 83.8319 7.00659 86.6231 6.85152C89.3922 6.69645 91.6517 8.69018 91.829 11.57C91.9397 13.6966 90.8986 15.4467 89.215 16.3106L93.0252 16.51C94.1107 15.1365 94.7088 13.3643 94.598 11.4149C94.3544 7.18381 90.965 4.14892 86.4902 4.3926C82.0154 4.63628 78.9584 8.04776 79.2021 12.2789C79.3128 14.2726 80.1325 16.0226 81.4395 17.2632C82.392 16.7758 83.4332 16.4435 84.5408 16.2663C83.0787 15.5131 82.0819 14.0068 81.9711 12.1238Z" fill="white"></path> <path d="M113.56 23.3988L105.23 22.9558C102.572 22.8228 100.401 24.728 100.268 27.497C100.135 30.2661 102.085 32.3927 104.743 32.5256L113.072 32.9687C115.731 33.1016 117.901 31.1965 118.034 28.4274C118.167 25.6805 116.218 23.5539 113.56 23.3988Z" fill="white"></path> <path d="M137.949 18.8577L86.7105 16.1772C80.8623 15.8671 75.878 20.3641 75.5679 26.2123C75.2577 32.0606 79.7547 37.0449 85.6029 37.355L136.842 40.0354C142.69 40.3456 147.674 35.8486 147.984 30.0004C148.294 24.1521 143.797 19.1678 137.949 18.8577ZM96.5241 34.1872L93.6 34.0321L90.2771 28.1396L87.065 27.9623L86.777 33.6555L84.2073 33.5226L84.9162 19.8102L87.4859 19.9432L87.1979 25.6363L90.41 25.8136L94.331 20.2976L97.2551 20.4527L92.5366 27.0762L96.5241 34.1872ZM120.692 28.5826C120.493 32.5258 117.392 35.4056 113.249 35.3391L104.588 34.8739H104.388C100.201 34.5638 97.3659 31.3517 97.5653 27.3642C97.7646 23.3768 100.932 20.497 105.119 20.6077H105.208C105.252 20.6077 105.274 20.6077 105.319 20.6077L113.648 21.0508C113.692 21.0508 113.714 21.0508 113.759 21.0508L113.98 21.0729C118.123 21.4495 120.892 24.6173 120.692 28.5826ZM137.816 36.3581L137.484 25.0161L137.063 24.9939L133.12 36.1145L129.31 35.9151L126.541 24.4401L126.12 24.418L124.613 35.6714L121.933 35.5385L123.838 21.8926L128.734 22.1584L131.281 33.6334H131.436L135.114 22.4907L140.032 22.7565L140.497 36.5353L137.816 36.3581Z" fill="white"></path> <path d="M76.1666 23.2L5.63314 27.1875C4.79134 27.2318 3.9717 26.9438 3.32928 26.39C2.68686 25.814 2.31027 25.0387 2.26596 24.1969L1.46847 9.99717C1.42417 9.15538 1.71215 8.33574 2.26596 7.69332C2.84193 7.0509 3.61726 6.6743 4.45906 6.63L95.9487 1.46847C96.0152 1.46847 96.0817 1.46847 96.126 1.46847C96.9013 1.46847 97.6545 1.75646 98.2304 2.26596C98.8729 2.84193 99.2495 3.61726 99.2938 4.45906L100.003 16.8644L101.465 16.9309L100.756 4.37045C100.601 1.82291 98.4077 -0.126503 95.8601 0.00641203L4.3926 5.19009C1.82291 5.323 -0.126504 7.5161 0.00641129 10.0858L0.8039 24.2855C0.958967 26.833 3.12991 28.8046 5.6996 28.6495L75.7678 24.6843C75.8565 24.1748 76.0115 23.6874 76.1666 23.2Z" fill="white"></path> </svg> 