<?xml version="1.0" encoding="UTF-8"?> <svg xmlns="http://www.w3.org/2000/svg" width="121" height="52" viewBox="0 0 121 52" fill="none"> <path d="M16.5973 52L14.0387 44.6228H0V0H5.18651V40.1412H10.7192V0H15.9058V40.1412H17.9805V52H16.5973ZM34.7798 44.6228L35.1944 24.4066L36.1621 8.47973H35.332L28.6931 44.6219H23.7844V0H28.7632L28.2793 25.9234L27.3107 36.1422H28.1408L34.7798 0H39.6893V44.6228H34.7798ZM54.83 4.48158V44.6228H49.6435V4.48158H43.9039V0H60.5705V4.48158H54.83ZM73.775 44.6228L71.9772 30.4891H66.7906L65.8913 44.6228H59.667L67.2745 6.96368L64.3013 0H71.1479L79.5847 44.6228H73.775ZM69.2108 11.0317H68.45L66.9283 29.1103H71.7694L69.2108 11.0317ZM88.0172 4.48158V44.6228H82.8307V4.48158H77.0911V0H93.7577V4.48158H88.0172ZM115.813 44.6228V0H121V44.6228H115.813ZM103.643 44.6228H97.4192V0H102.606V17.9255H102.744C108.345 17.9255 113.049 20.4767 113.049 27.2331V35.935C113.048 42.2097 109.59 44.6228 103.643 44.6228ZM107.861 26.5442C107.861 24.1311 107.031 22.6143 103.642 22.6143H102.605V39.9348H103.158C106.616 39.9348 107.861 38.6942 107.861 34.2126V26.5442Z" fill="white"></path> </svg> 