<?xml version="1.0" encoding="UTF-8"?> <svg xmlns="http://www.w3.org/2000/svg" width="243" height="18" viewBox="0 0 243 18" fill="none"> <path d="M3.23993 0.266685V15.4656H3.68809L10.1808 0.266685H16.4358V17.7096H13.1958V2.5107H12.7477L6.25498 17.7096H0V0.266685H3.23993Z" fill="white"></path> <path d="M120.762 0.266685V15.4656H121.211L127.703 0.266685H133.958V17.7096H130.718V2.5107H130.27L123.778 17.7096H117.523V0.266685H120.762Z" fill="white"></path> <path d="M19.8283 17.708V0.266685H25.9323L30.0718 15.4656H30.5151L34.6546 0.266685H40.7602V17.7096H37.57V2.68418H37.1219L33.0081 17.7096H27.5804L23.4666 2.68418H23.0184V17.7096L19.8283 17.708Z" fill="white"></path> <path d="M59.4913 0.266685V17.7096H56.2016V3.25603H47.4536V17.708H44.1639V0.266685H59.4913Z" fill="white"></path> <path d="M62.8903 17.708V0.266685L71.272 0.268291C72.3692 0.268291 73.3361 0.488356 74.1746 0.928485C75.0131 1.36861 75.6701 1.98704 76.1424 2.78538C76.6162 3.58211 76.8524 4.52984 76.8524 5.62534V5.97391C76.8524 7.05335 76.6066 7.99626 76.1167 8.80262C75.6268 9.60899 74.9617 10.2322 74.1232 10.6708C73.2848 11.1109 72.3338 11.331 71.2704 11.331L66.1784 11.3294V17.708H62.8903ZM66.18 8.34001L70.9476 8.34161C71.7282 8.34161 72.3595 8.12637 72.8414 7.69427C73.3233 7.26217 73.5642 6.67266 73.5642 5.92572V5.67674C73.5642 4.92981 73.3233 4.34029 72.8414 3.90819C72.3595 3.4761 71.7282 3.26085 70.9476 3.26085L66.18 3.25924V8.34001Z" fill="white"></path> <path d="M204.85 17.708V0.265085L213.231 0.266691C214.329 0.266691 215.295 0.486756 216.134 0.926885C216.972 1.36701 217.629 1.98544 218.102 2.78378C218.576 3.58051 218.812 4.52824 218.812 5.62374V5.97231C218.812 7.05175 218.566 7.99466 218.076 8.80102C217.586 9.60739 216.921 10.2306 216.083 10.6692C215.244 11.1093 214.293 11.3294 213.23 11.3294L208.138 11.3278V17.7064L204.85 17.708ZM208.139 8.33841L212.907 8.34001C213.688 8.34001 214.319 8.12477 214.801 7.69267C215.283 7.26057 215.524 6.67105 215.524 5.92412V5.67514C215.524 4.92821 215.283 4.33869 214.801 3.90659C214.319 3.4745 213.688 3.25925 212.907 3.25925L208.139 3.25764V8.33841Z" fill="white"></path> <path d="M100.168 0.266685H109.097C110.161 0.266685 111.086 0.444986 111.876 0.803193C112.665 1.1614 113.28 1.66739 113.72 2.32276C114.161 2.97974 114.381 3.76362 114.381 4.67762V4.92659C114.381 5.72332 114.231 6.21486 113.932 6.72245C113.634 7.22844 113.28 7.61877 112.874 7.89345C112.466 8.16813 112.241 8.36249 111.876 8.47975V8.92792C112.241 9.02751 113.004 9.37447 113.436 9.64915C113.868 9.92383 114.238 10.3174 114.544 10.833C114.851 11.3486 115.005 12.0201 115.005 12.8505V13.0995C115.005 14.0633 114.781 14.8889 114.332 15.5796C113.884 16.2688 113.264 16.7972 112.476 17.1619C111.687 17.5281 110.768 17.7096 109.722 17.7096H100.168V0.266685ZM103.458 7.28145H108.749C109.43 7.28145 109.991 7.10636 110.431 6.75779C110.871 6.40922 111.091 5.92733 111.091 5.31211V5.22376C111.091 4.59248 110.874 4.10738 110.444 3.76684C110.011 3.4263 109.448 3.25603 108.749 3.25603H103.458V7.28145ZM103.458 14.7187H109.322C110.037 14.7187 110.614 14.5436 111.054 14.195C111.494 13.8464 111.714 13.3485 111.714 12.6995V12.4506C111.714 11.8032 111.497 11.3037 111.067 10.9551C110.635 10.6065 110.053 10.4314 109.322 10.4314H103.458V14.7187Z" fill="white"></path> <path d="M173.756 17.708V3.25603H167.546V0.266685H183.254V3.25603H177.044V17.708H173.756Z" fill="white"></path> <path d="M224.845 0.265085V6.64375H230.835C231.898 6.64375 232.849 6.86381 233.688 7.30394C234.526 7.74407 235.191 8.36732 235.681 9.17208C236.171 9.97685 236.417 10.9197 236.417 12.0008V12.3494C236.417 13.4449 236.181 14.3926 235.707 15.1893C235.233 15.9861 234.578 16.6045 233.739 17.0462C232.901 17.4864 231.932 17.7064 230.837 17.7064H221.557V0.265085H224.845ZM224.845 14.7187H230.512C231.293 14.7187 231.924 14.5018 232.406 14.0713C232.888 13.6392 233.129 13.0497 233.129 12.3028V12.0538C233.129 11.3069 232.888 10.7157 232.406 10.2853C231.924 9.85316 231.293 9.63791 230.512 9.63791H224.845V14.7187Z" fill="white"></path> <path d="M239.21 17.708V0.265085H242.5V17.708H239.21Z" fill="white"></path> <path d="M162.978 0.263485H156.967L150.56 17.7112H154.299L155.663 13.8673H164.308L165.643 17.7112H169.382L162.978 0.263485ZM156.745 10.825L159.746 2.36775H160.202L163.232 10.825H156.745Z" fill="white"></path> <path d="M202.084 8.97928C202.084 4.0206 197.979 0 192.915 0C187.85 0 183.746 4.0206 183.746 8.97928C183.746 13.938 187.852 17.9586 192.915 17.9586C197.978 17.9586 202.084 13.938 202.084 8.97928ZM187.021 8.97928C187.021 5.79397 189.659 3.21102 192.912 3.21102C196.164 3.21102 198.802 5.79397 198.802 8.97928C198.802 12.1646 196.164 14.7475 192.912 14.7475C189.659 14.7475 187.021 12.1646 187.021 8.97928Z" fill="white"></path> <path d="M97.2108 8.98735C97.2108 4.02866 93.1066 0.00806723 88.0419 0.00806723C82.9772 0.00806723 78.8731 4.02866 78.8731 8.98735C78.8731 13.946 82.9788 17.9666 88.0419 17.9666C93.105 17.9666 97.2108 13.946 97.2108 8.98735ZM82.1484 8.98735C82.1484 5.80203 84.7859 3.21908 88.0387 3.21908C91.2915 3.21908 93.9291 5.80203 93.9291 8.98735C93.9291 12.1727 91.2915 14.7556 88.0387 14.7556C84.7859 14.7556 82.1484 12.1727 82.1484 8.98735Z" fill="white"></path> <path d="M146.128 5.21414C146.128 5.70406 146.001 6.10243 145.747 6.40923C145.493 6.71604 145.151 6.94092 144.724 7.08709C144.295 7.23327 143.811 7.30555 143.272 7.30555H142.379V10.3624H143.338C143.889 10.3624 144.382 10.4363 144.819 10.5856C145.256 10.735 145.604 10.9647 145.863 11.278C146.121 11.5912 146.251 11.9976 146.251 12.4972V12.7317C146.251 13.4658 145.964 14.0762 145.389 14.5597C144.814 15.0448 144.001 15.2857 142.949 15.2857C141.913 15.2857 141.079 15.0239 140.448 14.5002C139.817 13.9766 139.5 13.2778 139.5 12.4024V12.0747H136.392V12.4972C136.392 13.6232 136.671 14.595 137.23 15.4158C137.789 16.2366 138.562 16.8663 139.55 17.3032C140.538 17.7402 141.67 17.9602 142.949 17.9602C144.228 17.9602 145.349 17.745 146.312 17.3161C147.275 16.8872 148.025 16.2768 148.558 15.4881C149.093 14.6994 149.36 13.7726 149.36 12.7108V12.4297C149.36 11.445 149.125 10.6451 148.656 10.0266C148.341 9.61382 147.81 9.27328 147.382 9.00342V8.54884C147.739 8.30147 148.216 8.00109 148.487 7.64288C148.948 7.0373 149.178 6.25181 149.178 5.28642V5.0005C149.178 3.95639 148.932 3.06168 148.439 2.31956C147.948 1.57745 147.254 1.0056 146.357 0.605627C145.461 0.205656 144.409 0.004867 143.199 0.004867C141.99 0.004867 140.912 0.213688 139.969 0.629722C139.025 1.04576 138.284 1.6674 137.743 2.49144C137.203 3.31547 136.932 4.34833 136.932 5.59001V6.3241H140.078V5.59001C140.078 4.93785 140.204 4.41098 140.453 4.01101C140.703 3.61104 141.061 3.31708 141.531 3.12914C142 2.9412 142.555 2.84804 143.201 2.84804C144.17 2.84804 144.883 3.03116 145.342 3.399C145.802 3.76685 146.129 4.32584 146.129 4.96355L146.128 5.21414Z" fill="white"></path> </svg> 