<?xml version="1.0" encoding="UTF-8"?> <svg xmlns="http://www.w3.org/2000/svg" width="149" height="51" viewBox="0 0 149 51" fill="none"> <path d="M4.48485 8.81818V24.7424H0.5V4.83333H10.4545V8.81818H4.48485ZM21.0152 13.8485C20.1212 14.8485 18.9697 15.3485 17.5606 15.3636H17.2879V24.7424H13.303V4.83333H17.5758C18.9848 4.84848 20.1364 5.36364 21.0303 6.34848C21.9242 7.34848 22.3788 8.59091 22.3788 10.0909C22.3788 11.6061 21.9242 12.8485 21.0152 13.8485ZM18.5606 8.78788C18.2879 8.42424 17.9545 8.24242 17.5303 8.24242H17.2879V11.9394H17.5455C17.9697 11.9394 18.303 11.7576 18.5758 11.3939C18.8485 11.0303 18.9697 10.5909 18.9697 10.0909C18.9545 9.59091 18.8333 9.15152 18.5606 8.78788ZM41.4091 22.0152C39.5909 23.8333 37.1818 24.7424 34.1818 24.7424C31.1818 24.7424 28.7727 23.8333 26.9545 22.0152C25.1364 20.197 24.2273 17.7879 24.2273 14.7879C24.2273 11.7879 25.1364 9.37879 26.9545 7.56061C28.7727 5.74242 31.1818 4.83333 34.1818 4.83333C37.1818 4.83333 39.5909 5.74242 41.4091 7.56061C43.2273 9.37879 44.1364 11.7879 44.1364 14.7879C44.1364 17.7879 43.2273 20.197 41.4091 22.0152ZM38.6364 10.3939C37.6212 9.34849 36.1364 8.81818 34.1818 8.81818C32.2273 8.81818 30.7424 9.34849 29.7273 10.3939C28.7121 11.4394 28.2121 12.9091 28.2121 14.7879C28.2121 16.6667 28.7121 18.1364 29.7273 19.1818C30.7424 20.2273 32.2273 20.7576 34.1818 20.7576C36.1364 20.7576 37.6212 20.2273 38.6364 19.1818C39.6515 18.1364 40.1515 16.6667 40.1515 14.7879C40.1515 12.9091 39.6515 11.4545 38.6364 10.3939ZM69.5909 24.803V6.18182L61.4697 16.9848H57.9242V6.18182L51.4697 14.8636H55.0303L47.697 24.8182H42.8636L50.197 14.8636H46.6364L54.0303 4.89394H61.9091V9.98485L65.697 4.89394H73.5758V24.803H69.5909ZM88.7424 19.2121C89.7727 20.2424 91.2424 20.7576 93.1667 20.7576V24.7424C90.1667 24.7424 87.7576 23.8333 85.9394 22.0152C84.1212 20.197 83.2121 17.7879 83.2121 14.7879H80.6515V24.7424H76.6818V4.83333H80.6667V13.7879L87.2576 4.83333H92.0909L84.7576 14.7879H87.197C87.197 16.7121 87.7121 18.1818 88.7424 19.2121ZM116.955 24.7424V6.93939L103.864 24.7424H96.4697V4.83333H100.455V22.803L113.652 4.83333H120.924V24.7424H116.955ZM144.515 24.7424V6.93939L131.439 24.7424H124.045V4.83333H128.03V22.803L141.227 4.83333H148.5V24.7424H144.515ZM139.667 3.4697C138.576 4.37879 137.273 4.83333 135.758 4.83333C134.242 4.83333 132.939 4.37879 131.848 3.4697C130.758 2.56061 130.212 1.40909 130.212 0H133.394C133.394 0.575758 133.621 1.04545 134.076 1.42424C134.53 1.80303 135.091 2 135.758 2C136.424 2 136.985 1.80303 137.439 1.42424C137.894 1.04545 138.121 0.575758 138.121 0H141.303C141.303 1.40909 140.758 2.56061 139.667 3.4697ZM26.8182 40.3485H28.7273L36.0606 50.303H20.2727V30.3939H24.5455C25.9545 30.4091 27.1061 30.9242 28 31.9091C28.8939 32.9091 29.3485 34.1515 29.3485 35.6515C29.3485 36.697 29.1212 37.6212 28.6818 38.4545C28.2424 39.2727 27.6212 39.9091 26.8182 40.3485ZM24.2576 46.8788H28.7273L24.3182 40.9091H24.2576V46.8788ZM25.5455 34.3485C25.2727 33.9848 24.9394 33.803 24.5152 33.803H24.2576V37.5H24.5152C24.9394 37.5 25.2727 37.3182 25.5455 36.9545C25.8182 36.5909 25.9394 36.1515 25.9394 35.6515C25.9394 35.1364 25.803 34.697 25.5455 34.3485ZM51.5303 47.5606C49.7121 49.3788 47.303 50.2879 44.303 50.2879C41.303 50.2879 38.8939 49.3788 37.0758 47.5606C35.2576 45.7424 34.3485 43.3333 34.3485 40.3333C34.3485 37.3333 35.2576 34.9242 37.0758 33.1061C38.8939 31.2879 41.303 30.3788 44.303 30.3788C47.303 30.3788 49.7121 31.2879 51.5303 33.1061C53.3485 34.9242 54.2576 37.3333 54.2576 40.3333C54.2576 43.3333 53.3485 45.7424 51.5303 47.5606ZM48.7576 35.9545C47.7424 34.9091 46.2576 34.3788 44.303 34.3788C42.3485 34.3788 40.8636 34.9091 39.8485 35.9545C38.8333 37 38.3333 38.4697 38.3333 40.3485C38.3333 42.2273 38.8333 43.697 39.8485 44.7424C40.8636 45.7879 42.3485 46.3182 44.303 46.3182C46.2576 46.3182 47.7424 45.7879 48.7576 44.7424C49.7727 43.697 50.2727 42.2273 50.2727 40.3485C50.2879 38.4697 49.7727 37 48.7576 35.9545ZM69.8485 50.303H65.0152L76.7273 34.2879H69.1061L57.3939 50.303H52.5606L67.1212 30.3939H84.4091L69.8485 50.303ZM93.6818 39.3939C92.7879 40.3939 91.6364 40.8939 90.2273 40.9091H89.9394V50.2879H85.9545V30.3939H90.2273C91.6364 30.4091 92.7879 30.9242 93.6818 31.9091C94.5758 32.9091 95.0303 34.1515 95.0303 35.6515C95.0455 37.1515 94.5909 38.3939 93.6818 39.3939ZM91.2273 34.3485C90.9545 33.9848 90.6212 33.803 90.197 33.803H89.9394V37.5H90.197C90.6212 37.5 90.9545 37.3182 91.2273 36.9545C91.5 36.5909 91.6212 36.1515 91.6212 35.6515C91.6212 35.1364 91.5 34.697 91.2273 34.3485ZM114.227 47.5606C112.409 49.3788 110 50.2879 107 50.2879C104 50.2879 101.591 49.3788 99.7727 47.5606C97.9546 45.7424 97.0455 43.3333 97.0455 40.3333C97.0455 37.3333 97.9546 34.9242 99.7727 33.1061C101.591 31.2879 104 30.3788 107 30.3788C110 30.3788 112.409 31.2879 114.227 33.1061C116.045 34.9242 116.955 37.3333 116.955 40.3333C116.955 43.3333 116.045 45.7424 114.227 47.5606ZM111.455 35.9545C110.439 34.9091 108.955 34.3788 107 34.3788C105.045 34.3788 103.561 34.9091 102.545 35.9545C101.53 37 101.03 38.4697 101.03 40.3485C101.03 42.2273 101.53 43.697 102.545 44.7424C103.561 45.7879 105.045 46.3182 107 46.3182C108.955 46.3182 110.439 45.7879 111.455 44.7424C112.47 43.697 112.97 42.2273 112.97 40.3485C112.97 38.4697 112.47 37 111.455 35.9545ZM128.879 46.3182V50.303C125.879 50.303 123.47 49.3939 121.652 47.5758C119.833 45.7576 118.924 43.3485 118.924 40.3485C118.924 37.3485 119.833 34.9394 121.652 33.1212C123.47 31.303 125.879 30.3939 128.879 30.3939V34.3788C126.924 34.3788 125.439 34.9091 124.424 35.9545C123.409 37 122.909 38.4697 122.909 40.3485C122.909 42.2273 123.409 43.697 124.424 44.7424C125.455 45.7879 126.939 46.3182 128.879 46.3182Z" fill="white"></path> </svg> 